<svg id="Capa_1" enable-background="new 0 0 512 512" viewBox="0 0 512 512" xmlns="http://www.w3.org/2000/svg">
<path d="m459.5 0h-317c-28.949 0-52.5 23.551-52.5 52.5v45c0 1.989.79 3.897 2.197 5.303l9.697 9.697-9.697 9.697c-1.407 1.406-2.197 3.314-2.197 5.303v30c0 1.989.79 3.897 2.197 5.303l9.697 9.697-9.697 9.697c-1.407 1.406-2.197 3.314-2.197 5.303v212c0 4.142 3.358 7.5 7.5 7.5s7.5-3.358 7.5-7.5v-208.894l12.803-12.803c2.929-2.929 2.929-7.678 0-10.606l-12.803-12.803v-23.787l12.803-12.803c2.929-2.929 2.929-7.678 0-10.606l-12.803-12.804v-41.894c0-20.678 16.822-37.5 37.5-37.5h280.308c-9.745 9.537-15.808 22.821-15.808 37.5v298.894l-12.803 12.803c-2.929 2.929-2.929 7.678 0 10.606l12.803 12.803v71.894c0 20.678-16.822 37.5-37.5 37.5s-37.5-16.822-37.5-37.5v-30c0-4.142-3.358-7.5-7.5-7.5h-143.5c-1.989 0-3.897.79-5.303 2.197l-9.697 9.697-9.697-9.697c-1.406-1.407-3.314-2.197-5.303-2.197h-143.5c-4.142 0-7.5 3.358-7.5 7.5v30c0 28.949 23.551 52.5 52.5 52.5h317c28.949 0 52.5-23.551 52.5-52.5v-75c0-1.989-.79-3.897-2.197-5.303l-9.697-9.697 9.697-9.697c1.407-1.406 2.197-3.314 2.197-5.303v-302c0-20.678 16.822-37.5 37.5-37.5s37.5 16.822 37.5 37.5v22.5h-52.5c-4.142 0-7.5 3.358-7.5 7.5s3.358 7.5 7.5 7.5h60c4.142 0 7.5-3.358 7.5-7.5v-30c0-28.949-23.551-52.5-52.5-52.5zm-407 497c-20.678 0-37.5-16.822-37.5-37.5v-22.5h132.894l12.803 12.803c2.929 2.929 7.678 2.929 10.606 0l12.803-12.803h132.894v22.5c0 14.676 6.052 27.964 15.793 37.5z"></path>
</svg>